<svg xmlns="http://www.w3.org/2000/svg" viewBox="0 0 640 336" role="img" aria-label="Hash ring without and with virtual nodes" style="font:13px/1.3 ui-sans-serif,system-ui,sans-serif;">
  <style>
    svg{color:#243044;}
    .flow{stroke:#0d96a3;}
    .flowfill{fill:#0d96a3;}
    .hl{fill:#5b5ef0;fill-opacity:.16;stroke:#5b5ef0;}
    .hl-solid{fill:#5b5ef0;stroke:#5b5ef0;}
    .on-hl{fill:#ffffff;}
    .step{fill:#64748b;stroke:#64748b;}
  </style>
  <text x="320" y="22" text-anchor="middle" fill="currentColor" font-weight="600">Without vs with virtual nodes</text>
  <g transform="translate(160,170)">
    <text x="0" y="-115" text-anchor="middle" fill="currentColor" font-weight="600">Plain ring</text>
    <circle r="80" fill="none" stroke="currentColor" stroke-width="2"/>
    <g fill="currentColor">
      <circle cx="0" cy="-80" r="8"/>
      <circle cx="65" cy="50" r="8"/>
      <circle cx="-65" cy="50" r="8"/>
    </g>
    <text x="0" y="120" text-anchor="middle" fill="currentColor" font-size="11" opacity="0.85">Slices are uneven by luck.</text>
    <text x="0" y="136" text-anchor="middle" fill="currentColor" font-size="11" opacity="0.85">Removing a server gives a big slice to its neighbor.</text>
  </g>
  <g transform="translate(480,170)">
    <text x="0" y="-115" text-anchor="middle" fill="currentColor" font-weight="600">With ~12 vnodes each</text>
    <circle r="80" fill="none" stroke="currentColor" stroke-width="2"/>
    <g>
      <circle cx="0" cy="-80" r="5" fill="currentColor"/>
      <circle cx="35" cy="-72" r="5" fill="currentColor"/>
      <circle cx="62" cy="-50" r="5" fill="currentColor"/>
      <circle cx="79" cy="-15" r="5" fill="currentColor"/>
      <circle cx="78" cy="20" r="5" fill="currentColor"/>
      <circle cx="62" cy="50" r="5" fill="currentColor"/>
      <circle cx="30" cy="74" r="5" fill="currentColor"/>
      <circle cx="-10" cy="79" r="5" fill="currentColor"/>
      <circle cx="-45" cy="65" r="5" fill="currentColor"/>
      <circle cx="-72" cy="35" r="5" fill="currentColor"/>
      <circle cx="-80" cy="0" r="5" fill="currentColor"/>
      <circle cx="-65" cy="-45" r="5" fill="currentColor"/>
      <circle cx="-35" cy="-72" r="5" fill="currentColor"/>
    </g>
    <text x="0" y="120" text-anchor="middle" fill="currentColor" font-size="11" opacity="0.85">Load smooths to ~1/N.</text>
    <text x="0" y="136" text-anchor="middle" fill="currentColor" font-size="11" opacity="0.85">Removing a server distributes work across many neighbors.</text>
  </g>
</svg>