<svg xmlns="http://www.w3.org/2000/svg" viewBox="0 0 640 270" role="img" aria-label="Metrics, logs, and traces — the three pillars of observability" style="max-width:100%;height:auto;margin:1.5rem auto;display:block;font:13px/1.3 ui-sans-serif,system-ui,sans-serif;">
  <style>
    svg{color:#243044;}
    .flow{stroke:#0d96a3;}
    .flowfill{fill:#0d96a3;}
    .hl{fill:#5b5ef0;fill-opacity:.16;stroke:#5b5ef0;}
    .hl-solid{fill:#5b5ef0;stroke:#5b5ef0;}
    .on-hl{fill:#ffffff;}
    .step{fill:#64748b;stroke:#64748b;}
  </style>
  <text x="320" y="24" text-anchor="middle" fill="currentColor" font-weight="600">The three pillars</text>
  <g transform="translate(20,44)">
    <rect class="hl" width="190" height="206" rx="10" fill="currentColor" fill-opacity="0.1" stroke="currentColor" stroke-width="2" />
    <text x="95" y="32" text-anchor="middle" fill="currentColor" font-weight="700">Metrics</text>
    <polyline points="20,108 40,96 60,101 80,80 100,86 120,64 140,70 160,50 170,58" stroke="currentColor" stroke-width="1.5" fill="none"/>
    <g fill="currentColor" font-size="11">
      <text x="20" y="146">numbers over time</text>
      <text x="20" y="166">cheap, alertable</text>
      <text x="20" y="186">quantitative</text>
    </g>
  </g>
  <g transform="translate(225,44)">
    <rect width="190" height="206" rx="10" fill="none" stroke="currentColor" stroke-width="2"/>
    <text x="95" y="32" text-anchor="middle" fill="currentColor" font-weight="700">Logs</text>
    <g class="flow" stroke="currentColor" stroke-width="1.5" fill="none">
      <line x1="20" y1="62" x2="170" y2="62"/>
      <line x1="20" y1="78" x2="170" y2="78"/>
      <line x1="20" y1="94" x2="170" y2="94"/>
      <line x1="20" y1="110" x2="170" y2="110"/>
    </g>
    <g fill="currentColor" font-size="11">
      <text x="20" y="146">timestamped events</text>
      <text x="20" y="166">structured fields</text>
      <text x="20" y="186">qualitative</text>
    </g>
  </g>
  <g transform="translate(430,44)">
    <rect width="190" height="206" rx="10" fill="none" stroke="currentColor" stroke-width="2"/>
    <text x="95" y="32" text-anchor="middle" fill="currentColor" font-weight="700">Traces</text>
    <g fill="currentColor" opacity="0.5">
      <rect x="20" y="54" width="150" height="12" rx="3"/>
      <rect x="30" y="71" width="105" height="12" rx="3"/>
      <rect x="44" y="88" width="48" height="12" rx="3"/>
      <rect x="100" y="88" width="30" height="12" rx="3"/>
    </g>
    <g fill="currentColor" font-size="11">
      <text x="20" y="146">request waterfall</text>
      <text x="20" y="166">across services</text>
      <text x="20" y="186">latency analysis</text>
    </g>
  </g>
</svg>