<svg xmlns="http://www.w3.org/2000/svg" viewBox="0 0 640 240" role="img" aria-label="The chain of caches between user and origin" style="max-width:100%;height:auto;margin:1.5rem auto;display:block;font:12px/1.3 ui-sans-serif,system-ui,sans-serif;">
  <style>
    svg{color:#243044;}
    .flow{stroke:#0d96a3;}
    .flowfill{fill:#0d96a3;}
    .hl{fill:#5b5ef0;fill-opacity:.16;stroke:#5b5ef0;}
    .hl-solid{fill:#5b5ef0;stroke:#5b5ef0;}
    .on-hl{fill:#ffffff;}
    .step{fill:#64748b;stroke:#64748b;}
  </style>
  <text x="320" y="22" text-anchor="middle" fill="currentColor" font-weight="600">Caches at every layer (close to far)</text>
  <g fill="none" stroke="currentColor" stroke-width="2">
    <rect x="10" y="60" width="90" height="50" rx="8"/>
    <rect x="115" y="60" width="90" height="50" rx="8"/>
    <rect x="220" y="60" width="90" height="50" rx="8"/>
    <rect class="hl" x="325" y="60" width="90" height="50" rx="8" fill="currentColor" fill-opacity="0.1" stroke="currentColor" />
    <rect x="430" y="60" width="100" height="50" rx="8"/>
    <rect x="545" y="60" width="85" height="50" rx="8"/>
  </g>
  <g fill="currentColor" text-anchor="middle">
    <text x="55" y="78" font-weight="600">Browser</text>
    <text x="55" y="96" font-size="10">µs</text>
    <text x="160" y="78" font-weight="600">CDN edge</text>
    <text x="160" y="96" font-size="10">~30 ms</text>
    <text x="265" y="78" font-weight="600">Reverse</text>
    <text x="265" y="96" font-size="10">proxy</text>
    <text x="370" y="78" font-weight="600">App-local</text>
    <text x="370" y="96" font-size="10">µs (RAM)</text>
    <text x="480" y="78" font-weight="600">Redis /</text>
    <text x="480" y="96" font-size="10">Memcached</text>
    <text x="587" y="78" font-weight="600">DB cache</text>
    <text x="587" y="96" font-size="10">buffer pool</text>
  </g>
  <g class="flow" stroke="currentColor" stroke-width="1.5" fill="none">
    <path d="M100 85 H115"/>
    <path d="M205 85 H220"/>
    <path d="M310 85 H325"/>
    <path d="M415 85 H430"/>
    <path d="M530 85 H545"/>
  </g>
  <g fill="currentColor">
    <polygon class="flowfill" points="111,83 117,85 111,87" />
    <polygon class="flowfill" points="216,83 222,85 216,87" />
    <polygon class="flowfill" points="321,83 327,85 321,87" />
    <polygon class="flowfill" points="426,83 432,85 426,87" />
    <polygon class="flowfill" points="541,83 547,85 541,87" />
  </g>
  <text x="320" y="170" text-anchor="middle" fill="currentColor" font-size="11" opacity="0.8">Each level is bigger and slower than the one before it.</text>
  <text x="320" y="190" text-anchor="middle" fill="currentColor" font-size="11" opacity="0.8">"We cache" only means something when you say <tspan font-style="italic">which</tspan> cache.</text>
</svg>