<svg xmlns="http://www.w3.org/2000/svg" viewBox="0 0 640 270" role="img" aria-label="Leaderless quorum: N=3, W=2, R=2 writes and reads" style="font:13px/1.3 ui-sans-serif,system-ui,sans-serif;">
  <style>
    svg{color:#243044;}
    .flow{stroke:#0d96a3;}
    .flowfill{fill:#0d96a3;}
    .hl{fill:#5b5ef0;fill-opacity:.16;stroke:#5b5ef0;}
    .hl-solid{fill:#5b5ef0;stroke:#5b5ef0;}
    .on-hl{fill:#ffffff;}
    .step{fill:#64748b;stroke:#64748b;}
  </style>
  <text x="320" y="22" text-anchor="middle" fill="currentColor" font-weight="600">Leaderless quorum (N=3, W=2, R=2)</text>
  <g transform="translate(0,50)">
    <text x="160" y="0" text-anchor="middle" fill="currentColor" font-weight="600">Write (W=2 acks needed)</text>
    <g fill="none" stroke="currentColor" stroke-width="2">
      <rect x="20" y="20" width="70" height="35" rx="6"/>
      <rect class="hl" x="125" y="20" width="70" height="35" rx="6" fill="currentColor" fill-opacity="0.1" stroke="currentColor" />
      <rect class="hl" x="125" y="75" width="70" height="35" rx="6" fill="currentColor" fill-opacity="0.1" stroke="currentColor" />
      <rect x="125" y="130" width="70" height="35" rx="6"/>
    </g>
    <g fill="currentColor" text-anchor="middle" font-size="12">
      <text x="55" y="42">Client</text>
      <text x="160" y="42">Node A ✓</text>
      <text x="160" y="97">Node B ✓</text>
      <text x="160" y="152">Node C ✗</text>
    </g>
    <g class="flow" stroke="currentColor" stroke-width="1.5" fill="none">
      <path d="M90 38 H125"/>
      <path d="M90 38 H110 V92 H125"/>
      <path d="M90 38 H110 V147 H125"/>
    </g>
  </g>
  <g transform="translate(320,50)">
    <text x="160" y="0" text-anchor="middle" fill="currentColor" font-weight="600">Read (R=2 consulted)</text>
    <g fill="none" stroke="currentColor" stroke-width="2">
      <rect x="20" y="20" width="70" height="35" rx="6"/>
      <rect class="hl" x="125" y="20" width="70" height="35" rx="6" fill="currentColor" fill-opacity="0.1" stroke="currentColor" />
      <rect class="hl" x="125" y="75" width="70" height="35" rx="6" fill="currentColor" fill-opacity="0.1" stroke="currentColor" />
      <rect x="125" y="130" width="70" height="35" rx="6"/>
    </g>
    <g fill="currentColor" text-anchor="middle" font-size="12">
      <text x="55" y="42">Client</text>
      <text x="160" y="42">Node A</text>
      <text x="160" y="97">Node B</text>
      <text x="160" y="152">Node C</text>
    </g>
    <g class="flow" stroke="currentColor" stroke-width="1.5" fill="none">
      <path d="M90 38 H125"/>
      <path d="M90 38 H110 V92 H125"/>
    </g>
  </g>
  <text x="320" y="240" text-anchor="middle" fill="currentColor" font-size="11" opacity="0.7">W + R > N → at least one read node saw the latest write.</text>
</svg>